<svg xmlns="http://www.w3.org/2000/svg" viewBox="0 0 447.88 66.3"><defs><style>.cls-1{fill:#FF7171;}</style></defs><g id="Layer_2" data-name="Layer 2"><g id="Layer_1-2" data-name="Layer 1"><path class="cls-1" d="M1.85,65.3a3.49,3.49,0,0,1-1-2.6V46.5a3.15,3.15,0,0,1,.9-2.32,3.28,3.28,0,0,1,2.42-.9h23.3V42H22Q12.88,42,8.29,40.3a10.58,10.58,0,0,1-6.44-5.87Q0,30.22,0,22,0,12.88,2.23,8.29a12.55,12.55,0,0,1,7.86-6.44Q15.72,0,26.71,0H48.3a3.54,3.54,0,0,1,2.61,1,3.56,3.56,0,0,1,1,2.61V18.85a3.08,3.08,0,0,1-3.22,3.22H27.47v1.32h5.68q9,0,13.59,1.76a10.87,10.87,0,0,1,6.44,6.15Q55,35.71,55,44.32q0,9.1-1.85,13.69a11.17,11.17,0,0,1-6.44,6.44Q42.15,66.3,33.15,66.3H4.45A3.49,3.49,0,0,1,1.85,65.3Z"/><path class="cls-1" d="M76.29,61.85A33.16,33.16,0,0,1,64.21,49.77a32.44,32.44,0,0,1-4.45-16.62,32.44,32.44,0,0,1,4.45-16.62A33.16,33.16,0,0,1,76.29,4.45,32.34,32.34,0,0,1,92.91,0h9.66a3.55,3.55,0,0,1,3.6,3.6V27.37a4.91,4.91,0,0,1-1.42,3.55,4.69,4.69,0,0,1-3.5,1.47H89.41v1.42h11.84a4.69,4.69,0,0,1,3.5,1.47,4.91,4.91,0,0,1,1.42,3.55V62.7a3.55,3.55,0,0,1-3.6,3.6H92.91A32.44,32.44,0,0,1,76.29,61.85Z"/><path class="cls-1" d="M166.78,0a3.55,3.55,0,0,1,3.6,3.6V62.7a3.55,3.55,0,0,1-3.6,3.6H147.84A5.09,5.09,0,0,1,144.15,65a4.1,4.1,0,0,1-1.33-3.08V45H141.5V61.94A4.14,4.14,0,0,1,140.17,65a5,5,0,0,1-3.6,1.28h-19a3.55,3.55,0,0,1-3.59-3.6V3.6A3.47,3.47,0,0,1,115,1a3.47,3.47,0,0,1,2.55-1h19a5,5,0,0,1,3.6,1.28,4.14,4.14,0,0,1,1.33,3.08v17h1.32V4.36a4.1,4.1,0,0,1,1.33-3.08A5.09,5.09,0,0,1,147.84,0Z"/><path class="cls-1" d="M178.53,65.26a3.47,3.47,0,0,1-1-2.56V3.6a3.47,3.47,0,0,1,1-2.56,3.47,3.47,0,0,1,2.55-1h43.38a3.55,3.55,0,0,1,3.6,3.6V18.94a3.55,3.55,0,0,1-3.6,3.6H203v1.33h13.55v19H203v1.33h21.5a3.55,3.55,0,0,1,3.6,3.6V62.7a3.55,3.55,0,0,1-3.6,3.6H181.08A3.47,3.47,0,0,1,178.53,65.26Z"/><path class="cls-1" d="M268.64,4.45a33.09,33.09,0,0,1,12.08,12.08,32.34,32.34,0,0,1,4.45,16.62,32.34,32.34,0,0,1-4.45,16.62,33.09,33.09,0,0,1-12.08,12.08A32.44,32.44,0,0,1,252,66.3H238.57a3.57,3.57,0,0,1-3.6-3.6V3.6A3.48,3.48,0,0,1,236,1a3.47,3.47,0,0,1,2.55-1H252A32.34,32.34,0,0,1,268.64,4.45Z"/><path class="cls-1" d="M316.42,1a3.34,3.34,0,0,1,1.14,2.56V62.7a3.34,3.34,0,0,1-1.14,2.56,3.92,3.92,0,0,1-2.74,1H294.07a3.92,3.92,0,0,1-2.74-1,3.34,3.34,0,0,1-1.14-2.56V3.6A3.34,3.34,0,0,1,291.33,1a3.92,3.92,0,0,1,2.74-1h19.61A3.92,3.92,0,0,1,316.42,1Z"/><path class="cls-1" d="M325,1a3.54,3.54,0,0,1,2.61-1h43.09a3.55,3.55,0,0,1,3.6,3.6V19a3.57,3.57,0,0,1-3.6,3.6h-21.5V24h13.55V39.21a3.57,3.57,0,0,1-3.6,3.6h-6.35a3.55,3.55,0,0,0-3.6,3.6V62.7a3.55,3.55,0,0,1-3.6,3.6h-18a3.61,3.61,0,0,1-2.7-1,3.25,3.25,0,0,1-.9-2.6V3.6A3.56,3.56,0,0,1,325,1Z"/><path class="cls-1" d="M446.7,1.14A3.79,3.79,0,0,1,447.88,4a5.56,5.56,0,0,1-.47,2.08L428.09,46V62.7a3.57,3.57,0,0,1-3.6,3.6h-17.9a3.55,3.55,0,0,1-3.6-3.6V46.31L382.53,6.25A4.86,4.86,0,0,1,382,4.07a3.87,3.87,0,0,1,1.23-2.89A4.36,4.36,0,0,1,386.32,0h57.3A4.26,4.26,0,0,1,446.7,1.14Z"/></g></g></svg>